<svg width="109" height="109" viewBox="0 0 109 109" fill="none" xmlns="http://www.w3.org/2000/svg">
<path fill-rule="evenodd" clip-rule="evenodd" d="M2.64669 103.597V106.299H106.407V103.597H2.64669ZM71.7304 77.0697V100.896H90.3643V77.0697H71.7304ZM45.0478 72.0456V90.4685H58.3348V72.0456H45.0478ZM18.4719 72.0456V90.4685H31.6522V72.0456H18.4719ZM43.8054 69.4517H59.6306C60.2784 69.4517 60.9263 70.0997 60.9263 70.7496V91.8732C60.9263 92.4678 60.2784 93.1159 59.6306 93.1159H43.8054C42.9937 93.1159 42.4011 92.4678 42.4011 91.8732V70.7496C42.4011 70.0997 42.9937 69.4517 43.8054 69.4517ZM17.0676 69.4517H33.0566C33.813 69.4517 34.3523 70.0997 34.3523 70.7496V91.8732C34.3523 92.4678 33.813 93.1159 33.0566 93.1159H17.0676C16.4197 93.1159 15.8251 92.4678 15.8251 91.8732V70.7496C15.8251 70.0997 16.4197 69.4517 17.0676 69.4517ZM66.437 50.7048V53.4055H69.0837V50.7048H66.437ZM29.1674 50.7048V58.7003H31.7055V50.7048H29.1674ZM39.9163 50.6514V53.3522H42.725V50.6514H39.9163ZM86.0445 47.9488H91.338C92.0926 47.9488 92.5803 48.4901 92.5803 49.2467C92.5803 50.0568 92.0926 50.7048 91.338 50.7048H87.2868V53.4055H91.338C92.0926 53.4055 92.5803 53.8915 92.5803 54.7035C92.5803 55.3515 92.0926 55.9995 91.338 55.9995H87.2868V58.7003H91.338C92.0926 58.7003 92.5803 59.3483 92.5803 59.9982C92.5803 60.753 92.0926 61.4029 91.338 61.4029H86.0445C85.3947 61.4029 84.8022 60.753 84.8022 59.9982V49.2467C84.8022 48.4901 85.3947 47.9488 86.0445 47.9488ZM75.8882 47.9488C76.6447 47.9488 77.2393 48.4901 77.2393 49.2467V58.7003H81.1283C81.8848 58.7003 82.424 59.3483 82.424 59.9982C82.424 60.753 81.8848 61.4029 81.1283 61.4029H75.8882C75.2403 61.4029 74.5925 60.753 74.5925 59.9982V49.2467C74.5925 48.4901 75.2403 47.9488 75.8882 47.9488ZM65.1413 47.9488H70.3794C71.0273 47.9488 71.6751 48.4901 71.6751 49.2467V59.9982C71.6751 60.753 71.0273 61.4029 70.3794 61.4029C69.6229 61.4029 69.0837 60.753 69.0837 59.9982V55.9995H66.437V59.9982C66.437 60.753 65.7892 61.4029 65.1413 61.4029C64.2762 61.4029 63.8436 60.753 63.8436 59.9982V49.2467C63.8436 48.4901 64.2762 47.9488 65.1413 47.9488ZM54.4991 47.9488H59.6306C60.2784 47.9488 60.9263 48.4901 60.9263 49.2467C60.9263 50.0568 60.2784 50.7048 59.6306 50.7048H55.7414V53.4055H59.6306C60.2784 53.4055 60.9263 53.8915 60.9263 54.7035V59.9982C60.9263 60.753 60.2784 61.4029 59.6306 61.4029H54.4991C53.7426 61.4029 53.15 60.753 53.15 59.9982C53.15 59.3483 53.7426 58.7003 54.4991 58.7003H58.3882V55.9995H54.4991C53.7426 55.9995 53.15 55.3515 53.15 54.7035V49.2467C53.15 48.4901 53.7426 47.9488 54.4991 47.9488ZM38.6187 47.9488H44.1827C44.9926 47.9488 45.5337 48.4901 45.5337 49.2467V54.6482C45.5337 55.4049 44.9926 55.8909 44.1827 55.8909H41.9152L45.1012 58.9709C45.6404 59.5103 45.6404 60.3756 45.1012 60.9149C44.5619 61.4029 43.8054 61.4029 43.2643 60.9149L39.9163 57.8369V59.8895C39.9163 60.6462 39.4305 61.2942 38.6187 61.2942C37.9708 61.2942 37.2696 60.6462 37.2696 59.8895V49.2467C37.2696 48.4901 37.9708 47.9488 38.6187 47.9488ZM27.8164 47.9488H33.0566C33.813 47.9488 34.3523 48.4901 34.3523 49.2467V59.9982C34.3523 60.753 33.813 61.4029 33.0566 61.4029H27.8164C27.1686 61.4029 26.574 60.753 26.574 59.9982V49.2467C26.574 48.4901 27.1686 47.9488 27.8164 47.9488ZM17.0676 47.9488H22.3609C23.1174 47.9488 23.6034 48.4901 23.6034 49.2467C23.6034 50.0568 23.1174 50.7048 22.3609 50.7048H18.4185V53.4055H22.3609C23.1174 53.4055 23.6034 53.8915 23.6034 54.7035C23.6034 55.3515 23.1174 55.9995 22.3609 55.9995H18.4185V59.9982C18.4185 60.753 17.8241 61.4029 17.0676 61.4029C16.4197 61.4029 15.8251 60.753 15.8251 59.9982V49.2467C15.8251 48.4901 16.4197 47.9488 17.0676 47.9488ZM54.4991 23.9072C50.7719 23.9072 47.8565 26.9872 47.8565 30.5533C47.8565 34.2813 50.7719 37.2526 54.4991 37.2526C58.0109 37.2526 60.9263 34.2813 60.9263 30.5533C60.9263 26.9872 58.0109 23.9072 54.4991 23.9072ZM54.4991 21.3685C59.4152 21.3685 63.7369 25.4739 63.7369 30.5533C63.7369 35.686 59.4152 39.9 54.4991 39.9C49.4228 39.9 45.2098 35.686 45.2098 30.5533C45.2098 25.4739 49.4228 21.3685 54.4991 21.3685ZM54.5543 9.86044L7.94018 47.0301V100.896H69.1923V75.7737C69.1923 75.017 69.6782 74.369 70.4328 74.369H91.7687C92.5252 74.369 93.0663 75.017 93.0663 75.7737V100.896H101.006V47.0301L54.5543 9.86044ZM54.5543 3.05237L2.64669 44.4914V53.1901H5.34687V46.3821C5.34687 46.0047 5.50884 45.6255 5.72416 45.3567L53.6359 7.05108C54.1751 6.78043 54.9316 6.78043 55.3089 7.05108L103.221 45.3567C103.436 45.6255 103.707 46.0047 103.707 46.3821V53.1901H106.407V44.4914L54.5543 3.05237ZM53.6359 0.243011C54.1751 -0.0810013 54.9316 -0.0810013 55.3089 0.243011L108.567 42.8161C108.838 43.0867 109 43.466 109 43.8434V54.4862C109 55.1342 108.352 55.7842 107.704 55.7842H103.707V100.896H107.704C108.352 100.896 109 101.544 109 102.301V107.54C109 108.352 108.352 109 107.704 109H1.40435C0.594513 109 0 108.352 0 107.54V102.301C0 101.544 0.594513 100.896 1.40435 100.896H5.34687V55.7842H1.40435C0.594513 55.7842 0 55.1342 0 54.4862V43.8434C0 43.466 0.106717 43.0867 0.48591 42.8161L53.6359 0.243011Z" fill="#06202D"/>
</svg>
