<svg width="84" height="84" viewBox="0 0 84 84" fill="none" xmlns="http://www.w3.org/2000/svg">
<path fill-rule="evenodd" clip-rule="evenodd" d="M52.3733 58.448C51.7521 59.3421 51.0911 60.0031 50.3136 60.7806C49.4976 61.48 48.8366 62.2576 47.9425 62.7636L58.9037 73.7263C60.1092 74.8919 62.0524 74.8919 63.2194 73.7263C64.4248 72.5592 64.4248 70.5776 63.2194 69.4106L52.3733 58.448ZM49.4195 55.6106C48.2524 57.2823 46.7755 58.7592 45.1038 59.8097L46.5821 61.4032C47.3583 60.7806 48.1358 60.1196 48.8366 59.3421C49.6142 58.5645 50.3136 57.7486 50.8964 57.0876L49.4195 55.6106ZM35.3082 30.5381C26.8729 30.5381 20.0313 37.4182 20.0313 45.7368C20.0313 54.1337 26.8729 60.9754 35.3082 60.9754C43.6268 60.9754 50.5083 54.1337 50.5083 45.7368C50.5083 37.4182 43.6268 30.5381 35.3082 30.5381ZM35.3082 28.4769C44.7157 28.4769 52.5681 36.2127 52.5681 45.7368C52.5681 48.6523 51.7521 51.4129 50.5083 53.8621L64.6964 67.9336C66.6793 69.9166 66.6793 73.142 64.6964 75.2032C62.6366 77.1464 59.4098 77.1464 57.4666 75.2032L43.3553 60.9754C40.9061 62.2576 38.1455 62.9583 35.3082 62.9583C25.7841 62.9583 17.9715 55.2993 17.9715 45.7368C17.9715 36.2127 25.7841 28.4769 35.3082 28.4769ZM41.8784 8.65257L8.17446 42.51V81.6554H75.5808V42.51L41.8784 8.65257ZM41.8784 2.97646L2.8879 42.1219L4.24829 43.5207L41.1776 6.63119C41.4889 6.12515 42.2664 6.12515 42.6559 6.63119L79.5071 43.5207L80.984 42.1219L41.8784 2.97646ZM41.1776 0.83857C41.4889 0.488876 42.2664 0.488876 42.6559 0.83857L83.1219 41.4609C83.5114 41.8504 83.5114 42.4332 83.1219 42.8213L80.2064 45.6586C79.7786 46.1263 79.1957 46.1263 78.8076 45.6586L77.5639 44.493V82.6277C77.5639 83.1324 77.1744 83.6384 76.5915 83.6384H7.16376C6.58094 83.6384 6.19287 83.1324 6.19287 82.6277V44.493L4.94765 45.6586C4.63773 46.1263 3.97675 46.1263 3.54888 45.6586L0.633366 42.8213C0.28367 42.4332 0.28367 41.8504 0.633366 41.4609L41.1776 0.83857Z" fill="black"/>
</svg>
