<svg width="109" height="109" viewBox="0 0 109 109" fill="none" xmlns="http://www.w3.org/2000/svg">
<path fill-rule="evenodd" clip-rule="evenodd" d="M75.6542 55.9002L60.9784 70.4945V89.8822H90.3318V70.4945L75.6542 55.9002ZM74.7453 53.0466C75.2801 52.5622 76.0303 52.5622 76.6729 53.0466L97.8852 74.3721C98.4219 74.7483 98.4219 75.664 97.8852 76.1484C97.4034 76.688 96.6001 76.688 96.1182 76.1484L92.9039 73.1866V91.174C92.9039 91.9283 92.369 92.5742 91.6188 92.5742H59.5857C58.9413 92.5742 58.4065 91.9283 58.4065 91.174V73.1866L55.1919 76.1484C54.8178 76.688 53.907 76.688 53.4251 76.1484C52.8885 75.664 52.8885 74.7483 53.4251 74.3721L74.7453 53.0466ZM75.8696 42.383C94.1359 42.383 108.974 57.3004 108.974 75.664C108.974 82.6116 106.939 89.1811 102.974 94.835C103.35 97.7987 104.904 102.807 108.6 106.684C108.974 107.169 109.135 107.545 108.867 108.191C108.6 108.569 108.224 109 107.582 109C107.207 109 98.2613 108.839 91.4582 104.961C86.6375 107.545 81.3877 109 75.8696 109C57.6033 109 42.7651 94.0827 42.7651 75.664C42.7651 73.0802 42.9786 70.6561 43.5153 68.2319C43.7817 67.586 44.5318 67.0483 45.1743 67.2098C45.9246 67.3162 46.3007 68.0704 46.0853 68.7164C45.7111 71.0322 45.2821 73.2417 45.2821 75.664C45.2821 92.521 58.996 106.253 75.8696 106.253C81.1193 106.253 86.3692 104.853 90.8158 102.267C91.2428 102.161 91.7246 102.161 92.1007 102.429C96.226 104.853 101.474 105.768 104.635 106.145C101.689 102.052 100.671 97.4207 100.297 94.5671C100.189 94.2974 100.297 93.9212 100.565 93.6514C104.367 88.4269 106.296 82.2335 106.296 75.664C106.296 58.862 92.7432 45.075 75.8696 45.075C73.566 45.075 71.1547 45.3449 69.0666 45.8293C68.3163 45.9908 67.566 45.6146 67.4054 44.8072C67.2977 44.0529 67.8344 43.407 68.4769 43.2987C70.8883 42.6528 73.2977 42.383 75.8696 42.383ZM33.4427 13.4641L18.82 28.1115V47.4992H48.0675V28.1115L33.4427 13.4641ZM32.4261 10.772C32.908 10.1261 33.8189 10.1261 34.3537 10.772L55.5133 31.9359C56.1558 32.4735 56.1558 33.3893 55.5133 33.8737C55.1391 34.4133 54.2283 34.4133 53.6916 33.8737L50.6397 30.8055V48.8993C50.6397 49.6536 50.1029 50.1912 49.3527 50.1912H17.4272C16.624 50.1912 16.1423 49.6536 16.1423 48.8993V30.8055L13.0336 33.8737C12.5517 34.4133 11.7485 34.4133 11.106 33.8737C10.6241 33.3893 10.6241 32.4735 11.106 31.9359L32.4261 10.772ZM33.1763 2.69399C16.3027 2.69399 2.58899 16.4258 2.58899 33.281C2.58899 39.8524 4.62409 46.0991 8.48107 51.3767C8.74942 51.6465 8.74959 51.9144 8.74959 52.2924C8.37353 54.9845 7.302 59.6163 4.41068 63.7636C7.57035 63.4938 12.82 62.4697 16.7847 59.9923C17.3195 59.7777 17.8015 59.7777 18.0698 59.9923C22.6771 62.578 27.9266 63.9782 33.1763 63.9782C49.9422 63.9782 63.6033 50.2463 63.6033 33.281C63.6033 16.4258 49.9422 2.69399 33.1763 2.69399ZM33.1763 0C51.3349 0 66.2811 15.0256 66.2811 33.281C66.2811 51.6465 51.3349 66.5639 33.1763 66.5639C27.6582 66.5639 22.3008 65.2701 17.5349 62.6863C10.677 66.5639 1.67802 66.5639 1.30385 66.5639C0.659449 66.5639 0.285222 66.2941 0.0168771 65.8096C-0.0360359 65.2701 0.0169731 64.7856 0.445946 64.3544C4.1423 60.5319 5.53495 55.524 6.06975 52.3988C1.94632 46.7449 0.0168771 40.2286 0.0168771 33.281C0.0168771 15.0256 14.7494 0 33.1763 0Z" fill="#06202D"/>
</svg>
