<svg width="84" height="84" viewBox="0 0 84 84" fill="none" xmlns="http://www.w3.org/2000/svg">
<path fill-rule="evenodd" clip-rule="evenodd" d="M60.313 43.7487C59.2639 44.9144 57.9035 46.0032 56.4266 46.9755C54.9483 47.8696 53.3931 48.569 51.7228 49.1519L57.9034 58.9091L65.2882 63.6129C65.7942 63.8076 65.8724 64.1956 65.7943 64.7017L64.6286 69.8717L66.2605 72.5143L71.4305 73.7198C72.0133 73.9145 72.3247 74.4973 72.2081 75.0802L71.159 79.5892L78.9716 81.4556L60.8957 52.3787C60.6242 51.8726 60.819 51.2898 61.2853 50.9017C61.6734 50.707 62.3741 50.8235 62.6456 51.2898L80.605 80.3667L81.3044 77.5294L60.313 43.7487ZM22.373 42.1936L15.8028 51.7959L14.6372 60.6192C14.6372 61.047 14.3656 61.4365 13.8596 61.5133L8.68953 62.4856L6.93968 65.1679L7.91195 70.4545C7.99012 70.9208 7.60068 71.5434 7.01785 71.6202L2.54721 72.5143L3.98587 80.3667L23.0339 52.1071C23.3452 51.6011 23.928 51.523 24.4327 51.7959C24.9003 52.1072 25.0169 52.8065 24.7056 53.2728L5.65754 81.5338L8.49484 80.9509L30.6532 47.8696C27.4648 46.8192 24.6275 44.8376 22.373 42.1936ZM42.7431 18.4416C41.343 18.4416 40.0607 19.6471 39.7878 21.0473C40.7601 21.3188 41.7709 21.3188 42.6266 21.3188C43.2479 21.2406 43.7141 21.6301 43.7141 22.1347C43.9088 22.7189 43.4425 23.3402 42.9365 23.3402C41.9656 23.4183 41.0714 23.4183 40.254 23.2236C40.7601 24.1177 41.7709 24.7006 42.7431 24.7006C44.53 24.7006 45.8136 23.3402 45.8136 21.6301C45.8136 19.9584 44.53 18.4416 42.7431 18.4416ZM32.3634 15.4494C32.9462 15.1765 33.4522 15.4493 33.7635 15.954C34.5397 17.8588 36.018 19.3358 37.8063 20.3465C38.3891 18.0536 40.3707 16.4601 42.7431 16.4601C45.6189 16.4601 47.9899 18.753 47.9899 21.6301C47.9899 24.429 45.6189 26.7219 42.7431 26.7219C40.2541 26.7219 38.1944 24.9337 37.8063 22.5242C35.1239 21.4353 32.9461 19.3358 31.897 16.8481C31.6639 16.2653 31.8971 15.6441 32.3634 15.4494ZM36.912 12.3775C27.4647 12.3775 19.729 20.1133 19.729 29.6374C19.729 39.1615 27.4647 46.8973 36.912 46.8973C46.3963 46.8973 54.1322 39.1615 54.1322 29.6374C54.1322 20.1133 46.3963 12.3775 36.912 12.3775ZM52.3057 12.3391C56.6199 13.6995 60.3129 16.6548 62.6456 20.4644C65.4061 24.8569 66.1823 30.0653 65.0948 35.0406C64.4339 37.6064 63.2668 40.0556 61.6733 42.1936L83.2489 76.83C83.3655 77.1413 83.3654 77.4128 83.3654 77.6075L81.9653 83.2054C81.8871 83.7883 81.3825 84.0995 80.7997 83.983L69.6822 81.339C69.2145 81.2609 68.8264 80.6396 68.9046 80.1734L69.992 75.5464L65.4062 74.4973C65.2115 74.3807 64.9001 74.186 64.822 73.9927L62.6456 70.5711C62.5674 70.2996 62.4508 69.9883 62.5674 69.7935L63.6564 64.8964L56.6199 60.5807C56.4266 60.5026 56.3086 60.386 56.3086 60.1927L49.7014 49.5413C49.3901 49.6181 49.1953 49.7347 48.9238 49.7347C48.3396 49.8128 47.835 49.3466 47.7568 48.8406C47.6403 48.2578 48.1463 47.7531 48.6126 47.7531C51.0618 47.3636 53.3163 46.586 55.3376 45.2257C59.3406 42.893 61.9846 39.0449 63.1503 34.5743C64.1226 30.0653 63.3451 25.4397 61.0124 21.5519C58.8745 18.0152 55.5324 15.4878 51.7228 14.2823C51.1386 14.089 50.8671 13.5048 51.0619 13.0385C51.1387 12.4557 51.7228 12.1444 52.3057 12.3391ZM36.912 10.4343C47.4852 10.4343 56.1536 19.0642 56.1536 29.6374C56.1536 40.3285 47.4852 48.9571 36.912 48.9571C35.4735 48.9571 34.0734 48.7638 32.8296 48.4909L9.85515 82.4279C9.77836 82.6994 9.58372 82.816 9.27243 82.8941L3.59766 83.983C3.01346 84.0995 2.54727 83.6717 2.4307 83.2054L0.292808 71.9315C0.216012 71.4268 0.565564 70.844 1.07022 70.6493L5.65754 69.7551L4.76328 65.1679C4.76328 64.8566 4.76334 64.6619 4.99647 64.4686L7.21254 61.047C7.40728 60.7357 7.60065 60.6192 7.91195 60.6192L12.8105 59.6482L13.8596 51.3296C13.8596 51.213 13.9761 51.0183 13.9761 50.9401L21.0125 40.5219C18.8348 37.4898 17.6691 33.6802 17.6691 29.6374C17.6691 19.0642 26.2607 10.4343 36.912 10.4343ZM41.5377 0.950005C46.358 0.950005 50.6338 4.13704 52.1108 8.8408C52.3055 9.42362 51.9944 10.0064 51.4116 10.2011C50.8287 10.3177 50.361 9.92965 50.1676 9.50179C49.0006 5.61398 45.5023 3.0098 41.5377 3.0098C38.0393 3.0098 34.7344 5.10931 33.2958 8.52947C33.1024 9.1123 32.5183 9.30706 32.0137 9.11233C31.4308 8.8408 31.236 8.21821 31.4308 7.63538C33.1793 3.51444 37.2618 0.950005 41.5377 0.950005Z" fill="black"/>
</svg>
