<svg width="109" height="109" viewBox="0 0 109 109" fill="none" xmlns="http://www.w3.org/2000/svg">
<path fill-rule="evenodd" clip-rule="evenodd" d="M60.0337 90.4194H91.8857C92.6418 90.4194 93.1274 91.0674 93.1274 91.8748C93.1274 92.5208 92.6418 93.1667 91.8857 93.1667H60.0337C59.2776 93.1667 58.7919 92.5208 58.7919 91.8748C58.7919 91.0674 59.2776 90.4194 60.0337 90.4194ZM17.6534 90.4194H49.3434C50.0995 90.4194 50.747 91.0674 50.747 91.8748C50.747 92.5208 50.0995 93.1667 49.3434 93.1667H17.6534C16.8973 93.1667 16.3583 92.5208 16.3583 91.8748C16.3583 91.0674 16.8973 90.4194 17.6534 90.4194ZM60.0337 79.7044H91.8857C92.6418 79.7044 93.1274 80.3503 93.1274 81.1046C93.1274 81.7505 92.6418 82.3964 91.8857 82.3964H60.0337C59.2776 82.3964 58.7919 81.7505 58.7919 81.1046C58.7919 80.3503 59.2776 79.7044 60.0337 79.7044ZM17.6534 79.7044H49.3434C50.0995 79.7044 50.747 80.3503 50.747 81.1046C50.747 81.7505 50.0995 82.3964 49.3434 82.3964H17.6534C16.8973 82.3964 16.3583 81.7505 16.3583 81.1046C16.3583 80.3503 16.8973 79.7044 17.6534 79.7044ZM60.0337 68.9321H91.8857C92.6418 68.9321 93.1274 69.4718 93.1274 70.2792C93.1274 71.0867 92.6418 71.6262 91.8857 71.6262H60.0337C59.2776 71.6262 58.7919 71.0867 58.7919 70.2792C58.7919 69.4718 59.2776 68.9321 60.0337 68.9321ZM17.6534 68.9321H49.3434C50.0995 68.9321 50.747 69.4718 50.747 70.2792C50.747 71.0867 50.0995 71.6262 49.3434 71.6262H17.6534C16.8973 71.6262 16.3583 71.0867 16.3583 70.2792C16.3583 69.4718 16.8973 68.9321 17.6534 68.9321ZM76.0149 37.2674L69.3737 40.6054V50.46H82.5457V40.6054L76.0149 37.2674ZM33.526 37.2674L26.94 40.6054V50.46H40.1653V40.6054L33.526 37.2674ZM75.3655 34.5734C75.7445 34.4671 76.1768 34.4671 76.5539 34.5734L87.1357 39.9594C87.7832 40.2292 88.0537 41.0899 87.7832 41.7358C87.4061 42.3817 86.65 42.6516 86.0025 42.2755L85.2463 41.8973V51.6986C85.2463 52.3465 84.5988 52.9925 83.9494 52.9925H68.0786C67.3225 52.9925 66.675 52.3465 66.675 51.6986V41.8973L65.9188 42.2755C65.2712 42.6516 64.5152 42.3817 64.2447 41.7358C63.8676 41.0899 64.1361 40.2292 64.7836 39.9594L75.3655 34.5734ZM32.9317 34.5734C33.3088 34.4671 33.7965 34.4671 34.1736 34.5734L44.7553 39.9594C45.4028 40.2292 45.618 41.0899 45.2409 41.7358C45.0257 42.3817 44.1078 42.6516 43.6221 42.2755L42.8659 41.8973V51.6986C42.8659 52.3465 42.2184 52.9925 41.4623 52.9925H25.643C24.8869 52.9925 24.4013 52.3465 24.4013 51.6986V41.8973L23.6451 42.2755C22.9976 42.6516 22.0796 42.3817 21.8644 41.7358C21.432 41.0899 21.8644 40.2292 22.35 39.9594L32.9317 34.5734ZM61.4374 29.2424V58.2151H90.5906V29.2424H61.4374ZM18.9485 29.2424V58.2151H48.0483V29.2424H18.9485ZM60.0337 26.5503H91.8857C92.6418 26.5503 93.1274 27.1963 93.1274 27.8422V59.509C93.1274 60.2613 92.6418 60.9091 91.8857 60.9091H60.0337C59.2776 60.9091 58.7919 60.2613 58.7919 59.509V27.8422C58.7919 27.1963 59.2776 26.5503 60.0337 26.5503ZM17.6534 26.5503H49.3434C50.0995 26.5503 50.747 27.1963 50.747 27.8422V59.509C50.747 60.2613 50.0995 60.9091 49.3434 60.9091H17.6534C16.8973 60.9091 16.3583 60.2613 16.3583 59.509V27.8422C16.3583 27.1963 16.8973 26.5503 17.6534 26.5503ZM81.5744 18.6337H92.4266C93.1827 18.6337 93.7216 19.1713 93.7216 19.9256C93.7216 20.6798 93.1827 21.3258 92.4266 21.3258H81.5744C80.7649 21.3258 80.2793 20.6798 80.2793 19.9256C80.2793 19.1713 80.7649 18.6337 81.5744 18.6337ZM65.2713 18.6337H76.0149C76.6625 18.6337 77.31 19.1713 77.31 19.9256C77.31 20.6798 76.6625 21.3258 76.0149 21.3258H65.2713C64.5152 21.3258 63.8676 20.6798 63.8676 19.9256C63.8676 19.1713 64.5152 18.6337 65.2713 18.6337ZM49.3434 18.6337H60.0337C60.8432 18.6337 61.4908 19.1713 61.4908 19.9256C61.4908 20.6798 60.8432 21.3258 60.0337 21.3258H49.3434C48.6958 21.3258 48.0483 20.6798 48.0483 19.9256C48.0483 19.1713 48.6958 18.6337 49.3434 18.6337ZM8.20483 12.9779V100.652H101.172V12.9779H8.20483ZM36.6572 7.75513L39.3559 10.4472H62.1935L59.4947 7.75513H36.6572ZM8.20483 7.75513V10.4472H35.5239L32.9317 7.75513H8.20483ZM97.3384 5.0612H102.523C103.277 5.0612 103.871 5.70715 103.871 6.46139C103.871 7.27072 103.277 7.75513 102.523 7.75513H97.3384C96.7461 7.75513 96.0966 7.27072 96.0966 6.46139C96.0966 5.70715 96.7461 5.0612 97.3384 5.0612ZM86.7567 5.0612H91.8857C92.6418 5.0612 93.1274 5.70715 93.1274 6.46139C93.1274 7.27072 92.6418 7.75513 91.8857 7.75513H86.7567C86.0025 7.75513 85.353 7.27072 85.353 6.46139C85.353 5.70715 86.0025 5.0612 86.7567 5.0612ZM76.0149 5.0612H81.142C81.8981 5.0612 82.3838 5.70715 82.3838 6.46139C82.3838 7.27072 81.8981 7.75513 81.142 7.75513H76.0149C75.2588 7.75513 74.6113 7.27072 74.6113 6.46139C74.6113 5.70715 75.2588 5.0612 76.0149 5.0612ZM6.90974 5.0612H60.0337C60.4108 5.0612 60.6813 5.16944 61.0603 5.43922L65.9188 10.4472H102.467C103.223 10.4472 103.871 11.0932 103.871 11.7392V102.052C103.871 102.698 103.223 103.346 102.467 103.346H6.90974C6.15363 103.346 5.61465 102.698 5.61465 102.052V6.46139C5.61465 5.70715 6.15363 5.0612 6.90974 5.0612ZM2.6454 2.69207V106.414H106.301V2.69207H2.6454ZM1.24173 0H107.543C108.353 0 109 0.592712 109 1.23866V107.708C109 108.462 108.353 109 107.543 109H1.24173C0.594181 109 0 108.462 0 107.708V1.23866C0 0.592712 0.594181 0 1.24173 0Z" fill="#06202D"/>
</svg>
