<svg width="109" height="109" viewBox="0 0 109 109" fill="none" xmlns="http://www.w3.org/2000/svg">
<path fill-rule="evenodd" clip-rule="evenodd" d="M71.7325 82.3897V106.254H90.3663V82.3897H71.7325ZM18.5786 82.3897V106.254H58.5382V82.3897H18.5786ZM18.5786 77.0023V79.697H58.5382V77.0023H18.5786ZM77.2802 55.4012V63.4282H90.4746V55.4012H77.2802ZM47.8762 55.4012V63.4282H61.0687V55.4012H47.8762ZM19.0631 50.1772V63.4282H32.2043V50.1772H19.0631ZM77.2802 44.9513V52.87H90.4746V44.9513H77.2802ZM47.8762 44.9513V52.87H61.0687V44.9513H47.8762ZM19.0631 44.9513V47.5377H32.2043V44.9513H19.0631ZM75.88 42.3118H91.8748C92.5208 42.3118 93.1667 42.9578 93.1667 43.5507V64.6672C93.1667 65.4216 92.5208 65.9595 91.8748 65.9595H75.88C75.1257 65.9595 74.5861 65.4216 74.5861 64.6672V43.5507C74.5861 42.9578 75.1257 42.3118 75.88 42.3118ZM46.476 42.3118H62.4707C63.1167 42.3118 63.7627 42.9578 63.7627 43.5507V64.6672C63.7627 65.4216 63.1167 65.9595 62.4707 65.9595H46.476C45.8282 65.9595 45.1822 65.4216 45.1822 64.6672V43.5507C45.1822 42.9578 45.8282 42.3118 46.476 42.3118ZM17.7712 42.3118H33.6045C34.2505 42.3118 34.8964 42.9578 34.8964 43.5507V64.6672C34.8964 65.4216 34.2505 65.9595 33.6045 65.9595H17.7712C17.017 65.9595 16.371 65.4216 16.371 64.6672V43.5507C16.371 42.9578 17.017 42.3118 17.7712 42.3118ZM54.5541 15.5399C50.838 15.5399 47.8762 18.5025 47.8762 22.058C47.8762 25.7751 50.838 28.7377 54.5541 28.7377C58.1068 28.7377 61.0687 25.7751 61.0687 22.058C61.0687 18.5025 58.1068 15.5399 54.5541 15.5399ZM54.5541 12.8472C59.6685 12.8472 63.7627 17.102 63.7627 22.058C63.7627 27.1756 59.6685 31.4305 54.5541 31.4305C49.4378 31.4305 45.1822 27.1756 45.1822 22.058C45.1822 17.102 49.4378 12.8472 54.5541 12.8472ZM54.5541 2.93504L18.2024 34.2315C17.8244 34.3931 17.5565 34.5014 17.2867 34.5014H7.91666V106.254H15.8865V75.71C15.8865 74.9556 16.5325 74.4178 17.2867 74.4178H59.7768C60.5843 74.4178 61.0687 74.9556 61.0687 75.71V106.254H69.1469V80.9892C69.1469 80.3431 69.6864 79.697 70.4406 79.697H91.7665C92.5207 79.697 93.0584 80.3431 93.0584 80.9892V106.254H101.03V34.5014H91.7665C91.3903 34.5014 91.1206 34.3931 90.8508 34.2315L54.5541 2.93504ZM53.6384 0.242294C54.176 -0.0807648 54.9303 -0.0807648 55.3064 0.242294L92.1427 31.8087H106.414V7.78283H68.9321C68.1247 7.78283 67.4788 7.29817 67.4788 6.54374C67.4788 5.89763 68.1247 5.25153 68.9321 5.25153H107.708C108.46 5.25153 109 5.89763 109 6.54374V33.1009C109 33.8553 108.46 34.5014 107.708 34.5014H103.722V107.546C103.722 108.354 103.183 109 102.322 109H6.6228C5.86856 109 5.22261 108.354 5.22261 107.546V34.5014H1.23866C0.59081 34.5014 0 33.8553 0 33.1009V6.54374C0 5.89763 0.59081 5.25153 1.23866 5.25153H40.0127C40.8201 5.25153 41.3046 5.89763 41.3046 6.54374C41.3046 7.29817 40.8201 7.78283 40.0127 7.78283H2.69207V31.8087H16.8023L53.6384 0.242294Z" fill="#06202D"/>
</svg>
