<svg width="109" height="109" viewBox="0 0 109 109" fill="none" xmlns="http://www.w3.org/2000/svg">
<path fill-rule="evenodd" clip-rule="evenodd" d="M98.3161 98.4464V104.476L104.49 98.4464H98.3161ZM92.1417 79.9741C92.9466 80.242 93.2157 80.9962 93.0547 81.6421L87.5792 97.9068C87.4713 98.3913 86.9352 98.661 86.3973 98.7693C85.8614 98.7693 85.2173 98.3912 85.1093 98.015L82.3176 92.6822C82.1017 91.9299 82.3177 91.1205 83.0147 90.7443C83.6586 90.3682 84.4105 90.7444 84.8405 91.3903L86.0223 93.8677L90.4771 80.8898C90.585 80.0805 91.3898 79.7043 92.1417 79.9741ZM27.6101 76.8508C28.415 76.8508 28.8981 77.3884 29.006 78.1426C29.006 78.8969 28.5231 79.3813 27.7712 79.4896L15.9054 80.1356C15.1535 80.1356 14.6706 79.6512 14.6706 78.897C14.5096 78.1427 15.0474 77.4968 15.7993 77.4968L27.6101 76.8508ZM43.5006 74.0504H69.9691C70.613 74.0504 71.2569 74.5348 71.2569 75.3423C71.2569 76.0965 70.613 76.7425 69.9691 76.7425H43.5006C42.7487 76.7425 42.1048 76.0965 42.1048 75.3423C42.1048 74.5348 42.7487 74.0504 43.5006 74.0504ZM27.6101 66.1337C28.415 66.1337 28.8981 66.6182 29.006 67.3173C29.006 68.0716 28.5231 68.6643 27.7712 68.6643L15.3695 69.4186C14.7255 69.4186 14.0796 68.7726 14.0796 68.1798C13.9736 67.4788 14.5644 66.8328 15.2084 66.7245L27.6101 66.1337ZM43.5006 63.8709H96.4374C97.1893 63.8709 97.7252 64.5169 97.7252 65.2711C97.7252 65.9171 97.1893 66.5631 96.4374 66.5631H43.5006C42.7487 66.5631 42.1048 65.9171 42.1048 65.2711C42.1048 64.5169 42.7487 63.8709 43.5006 63.8709ZM27.6101 55.9543C28.523 55.9543 28.8981 56.4388 29.006 57.1398C29.006 57.7858 28.5231 58.3785 27.7712 58.4849L14.7786 59.2391C14.0266 59.2391 13.5436 58.5932 13.3826 58.0005C13.3826 57.3013 13.9187 56.6553 14.6706 56.5471L27.6101 55.9543ZM43.5006 53.1008H59.2852C60.0371 53.1008 60.5748 53.7467 60.5748 54.5541C60.5748 55.2 60.0371 55.846 59.2852 55.846H43.5006C42.7487 55.846 42.1048 55.2 42.1048 54.5541C42.1048 53.7467 42.7487 53.1008 43.5006 53.1008ZM27.6101 45.184C28.523 45.184 28.8981 45.7218 29.006 46.476C29.006 47.2303 28.5231 47.7147 27.7712 47.823L14.3485 48.4689H14.2424C13.5966 48.4689 12.9527 47.9845 12.8467 47.3385C12.8467 46.5843 13.4357 45.9383 14.0796 45.9383L27.6101 45.184ZM43.5006 42.3837H96.4374C97.1893 42.3837 97.7252 43.0296 97.7252 43.7838C97.7252 44.4298 97.1893 45.0758 96.4374 45.0758H43.5006C42.7487 45.0758 42.1048 44.4298 42.1048 43.7838C42.1048 43.0296 42.7487 42.3837 43.5006 42.3837ZM27.6101 34.467C28.415 34.467 28.8981 34.9515 29.006 35.6525C29.006 36.4049 28.5231 36.9977 27.7712 36.9977L13.6515 37.7518H13.5437C12.8998 37.7518 12.2557 37.1059 12.2557 36.5132C12.2557 35.814 12.7918 35.3277 13.5437 35.1662L27.6101 34.467ZM43.5006 31.6135H96.4374C97.1893 31.6135 97.7252 32.2594 97.7252 33.0668C97.7252 33.7128 97.1893 34.3587 96.4374 34.3587H43.5006C42.7487 34.3587 42.1048 33.7128 42.1048 33.0668C42.1048 32.2594 42.7487 31.6135 43.5006 31.6135ZM27.6632 23.6967C28.4151 23.6967 28.8981 24.1813 29.006 24.9355C29.006 25.6347 28.5231 26.2806 27.7712 26.2806L13.1137 26.9816C12.3088 26.9816 11.8257 26.4972 11.8257 25.7962C11.7177 25.1502 12.3088 24.5574 12.9528 24.5574L27.6632 23.6967ZM59.715 21.4341H80.7059C81.2969 21.4341 81.9408 21.9736 81.9408 22.781C81.9408 23.5885 81.2969 24.1261 80.7059 24.1261H59.715C58.9631 24.1261 58.4272 23.5885 58.4272 22.781C58.4272 21.9736 58.9631 21.4341 59.715 21.4341ZM34.6424 13.3028V106.416H95.7933V97.0443C95.7933 96.2919 96.4373 95.7523 97.0813 95.7523H106.422V13.3028H34.6424ZM33.3547 10.717H107.712C108.464 10.717 109 11.363 109 12.0089V97.0443C109 97.4223 108.839 97.6921 108.57 98.0683L98.1022 108.571C97.6723 108.838 97.4582 109 97.0813 109H33.3547C32.6027 109 31.9587 108.462 31.9587 107.708V12.0089C31.9587 11.363 32.6027 10.717 33.3547 10.717ZM75.2305 0C76.0903 0 76.6262 0.592712 76.6262 1.23866L76.8953 6.51647C76.8953 7.27071 76.3573 7.91666 75.6073 7.91666C74.9615 7.91666 74.2116 7.37901 74.2116 6.62477L74.0486 2.63885L2.69867 6.62477L7.79913 99.3602L27.7162 98.2297C28.6291 98.2297 29.0061 98.7142 29.1122 99.5216C29.1122 100.276 28.6291 100.922 27.8242 100.922L6.67227 102.054C5.86544 102.216 5.2215 101.57 5.2215 100.76L0.0149148 5.33092C-0.093042 4.84646 0.390024 4.09412 1.30292 3.93073L75.2305 0Z" fill="#06202D"/>
</svg>
