<svg width="107" height="107" viewBox="0 0 107 107" fill="none" xmlns="http://www.w3.org/2000/svg">
<path fill-rule="evenodd" clip-rule="evenodd" d="M19.5964 22.6745L3.49848 27.3322C3.01418 27.4928 2.63812 27.9744 2.63812 28.6165V58.8669C2.63812 60.6348 3.65997 62.0268 5.16797 62.5084V36.9158C5.16797 36.2736 5.8136 35.7391 6.5676 35.7391C7.16016 35.7391 7.80586 36.2736 7.80586 36.9158V64.0081L8.34536 103.198C8.45171 103.84 8.93598 104.322 9.58362 104.322H14.6431C15.2888 104.322 15.7733 103.84 15.7733 103.198V64.0081C15.7733 63.4188 16.1511 62.7766 17.0665 62.7766H22.2345C23.0968 62.7766 23.5259 63.4188 23.5259 64.0081V103.198C23.5259 103.84 24.0103 104.322 24.6579 104.322H29.556C30.31 104.322 30.8476 103.84 30.8476 103.198L31.3338 64.0081V36.9158C31.3338 36.2736 31.9794 35.7391 32.7334 35.7391C33.4855 35.7391 34.025 36.2736 34.025 36.9158V62.5084C35.533 62.0268 36.6631 60.6348 36.6631 58.8669V28.6165C36.6631 27.9744 36.2851 27.4928 35.6393 27.3322L19.5964 22.6745ZM14.3735 2.97289C13.6214 2.97289 13.1352 3.5074 13.1352 4.25723V14.4301C13.1352 15.6616 13.7827 16.9459 14.7514 17.6957L17.4426 19.4089C18.8423 20.3192 20.4587 20.3192 21.8585 19.4089L24.3883 17.6957C25.5184 16.9459 26.164 15.6616 26.164 14.4301V4.25723C26.164 3.5074 25.6266 2.97289 24.8726 2.97289H14.3735ZM52.7059 0.402306C53.0838 -0.134102 53.9974 -0.134102 54.4836 0.402306L106.597 52.2827C107.134 52.8172 107.134 53.567 106.597 54.0487L102.99 57.796C102.451 58.2776 101.59 58.2776 101.106 57.796L99.545 56.2982V105.019C99.545 105.769 98.9525 106.411 98.3067 106.411H36.8245C36.0705 106.411 35.5862 105.769 35.5862 105.019C35.5862 104.269 36.0705 103.787 36.8245 103.787H96.9071V53.6747L53.6214 10.4675L41.0236 22.9956C40.4842 23.4772 39.624 23.4772 39.2461 22.9956C38.7618 22.4611 38.7617 21.6036 39.1397 21.0691L52.5976 7.68343C53.0838 7.2018 53.9974 7.2018 54.4836 7.68343L101.967 55.0667L103.851 53.1931L53.6214 3.02575L35.6945 20.8538C35.2102 21.3354 34.4561 21.3354 33.8085 20.8538C33.3242 20.3193 33.3242 19.4618 33.8085 18.9801L52.7059 0.402306ZM14.3735 0.349396H24.8726C27.0264 0.349396 28.8021 2.11539 28.8021 4.25723V14.4301C28.8021 16.572 27.672 18.659 25.8962 19.8376L23.7424 21.3354L36.3933 24.8164C38.0627 25.3509 39.301 26.7429 39.301 28.6165V58.8669C39.301 62.0268 37.0391 64.6503 34.025 65.1319L33.4855 103.198C33.3792 105.34 31.7098 107 29.556 107H24.6579C22.5042 107 20.8346 105.34 20.8346 103.198L20.9962 65.4001H18.305L18.4664 103.198C18.4664 105.34 16.7968 107 14.6431 107H9.58362C7.53624 107 5.81365 105.34 5.81365 103.198L5.27624 65.1319C2.26024 64.6503 0 62.0268 0 58.8669V28.6165C0 26.7429 1.13014 25.3509 2.74639 24.8164L15.3973 21.3354L13.4048 19.8376C11.629 18.659 10.4971 16.572 10.4971 14.4301V4.25723C10.4971 2.11539 12.2216 0.349396 14.3735 0.349396Z" fill="#06202D"/>
</svg>
