<svg width="149" height="147" viewBox="0 0 149 147" fill="none" xmlns="http://www.w3.org/2000/svg">
<path fill-rule="evenodd" clip-rule="evenodd" d="M103.417 75.3871L83.3533 95.0697V121.217H123.481V95.0697L103.417 75.3871ZM102.172 71.5387C102.906 70.8853 103.929 70.8853 104.81 71.5387L133.806 100.299C134.538 100.809 134.538 102.044 133.806 102.697C133.148 103.422 132.05 103.422 131.389 102.697L126.997 98.7029V122.959C126.997 123.976 126.264 124.847 125.238 124.847H81.4495C80.5712 124.847 79.84 123.976 79.84 122.959V98.7029L75.446 102.697C74.9319 103.422 73.6868 103.422 73.0281 102.697C72.2971 102.044 72.2971 100.809 73.0281 100.299L102.172 71.5387ZM103.709 57.1572C128.681 57.1572 148.965 77.2754 148.965 102.044C148.965 111.411 146.18 120.274 140.763 127.899C141.275 131.893 143.398 138.647 148.451 143.877C148.965 144.53 149.185 145.04 148.818 145.911C148.451 146.418 147.939 147 147.061 147C146.547 147 134.318 146.782 125.018 141.553C118.428 145.04 111.252 147 103.709 147C78.7395 147 58.4561 126.882 58.4561 102.044C58.4561 98.5569 58.7505 95.2876 59.4816 92.0208C59.8484 91.1497 60.874 90.422 61.7523 90.6398C62.7779 90.7858 63.2893 91.8029 62.9974 92.6741C62.4833 95.7974 61.8994 98.7747 61.8994 102.044C61.8994 124.776 80.6434 143.295 103.709 143.295C110.885 143.295 118.062 141.407 124.14 137.922C124.727 137.776 125.385 137.776 125.897 138.14C131.536 141.407 138.712 142.642 143.034 143.152C139.004 137.63 137.614 131.386 137.1 127.535C136.955 127.171 137.1 126.664 137.467 126.3C142.667 119.257 145.302 110.904 145.302 102.044C145.302 79.3815 126.777 60.7903 103.709 60.7903C100.563 60.7903 97.2666 61.1542 94.4095 61.8076C93.3866 62.0254 92.361 61.5155 92.1415 60.4266C91.9942 59.4094 92.7253 58.5382 93.6062 58.3922C96.8998 57.521 100.196 57.1572 103.709 57.1572ZM45.7155 18.1556L25.7238 37.9126V64.0572H65.7071V37.9126L45.7155 18.1556ZM44.3232 14.525C44.9845 13.6539 46.227 13.6539 46.9606 14.525L75.8851 43.0677C76.7634 43.7954 76.7634 45.0304 75.8851 45.6837C75.371 46.4088 74.1259 46.4088 73.3949 45.6837L69.2204 41.5433V65.9455C69.2204 66.9627 68.4894 67.6903 67.4638 67.6903H23.82C22.7221 67.6903 22.0634 66.9627 22.0634 65.9455V41.5433L17.8164 45.6837C17.1577 46.4088 16.0599 46.4088 15.1816 45.6837C14.5203 45.0304 14.5203 43.7954 15.1816 43.0677L44.3232 14.525ZM45.3486 3.63075C22.2829 3.63075 3.53892 22.1501 3.53892 44.8843C3.53892 53.7443 6.32102 62.1689 11.5934 69.2866C11.9576 69.6504 11.9578 70.0143 11.9578 70.5216C11.4463 74.1547 9.98155 80.3987 6.02661 85.9919C10.3484 85.6281 17.5245 84.2497 22.9416 80.9086C23.6752 80.6165 24.334 80.6165 24.7009 80.9086C30.9962 84.3932 38.1724 86.2815 45.3486 86.2815C68.2697 86.2815 86.9414 67.762 86.9414 44.8843C86.9414 22.1501 68.2697 3.63075 45.3486 3.63075ZM45.3486 0C70.1736 0 90.6018 20.2617 90.6018 44.8843C90.6018 69.6503 70.1736 89.7686 45.3486 89.7686C37.8082 89.7686 30.4847 88.0263 23.9672 84.5392C14.5952 89.7686 2.29388 89.7686 1.77981 89.7686C0.901511 89.7686 0.389891 89.4048 0.0230706 88.7515C-0.0492601 88.0264 0.0232018 87.373 0.609597 86.7913C5.66241 81.6337 7.56614 74.8799 8.29719 70.6676C2.65798 63.0426 0.0230706 54.2542 0.0230706 44.8843C0.0230706 20.2617 20.1595 0 45.3486 0Z" fill="white"/>
</svg>
