<svg width="148" height="147" viewBox="0 0 148 147" fill="none" xmlns="http://www.w3.org/2000/svg">
<path fill-rule="evenodd" clip-rule="evenodd" d="M81.5148 121.944H124.762C125.789 121.944 126.449 122.816 126.449 123.905C126.449 124.776 125.789 125.649 124.762 125.649H81.5148C80.4881 125.649 79.8288 124.776 79.8288 123.905C79.8288 122.816 80.4881 121.944 81.5148 121.944ZM23.9718 121.944H66.9998C68.0264 121.944 68.9056 122.816 68.9056 123.905C68.9056 124.776 68.0264 125.649 66.9998 125.649H23.9718C22.9452 125.649 22.2108 124.776 22.2108 123.905C22.2108 122.816 22.9452 121.944 23.9718 121.944ZM81.5148 107.491H124.762C125.789 107.491 126.449 108.362 126.449 109.38C126.449 110.251 125.789 111.122 124.762 111.122H81.5148C80.4881 111.122 79.8288 110.251 79.8288 109.38C79.8288 108.362 80.4881 107.491 81.5148 107.491ZM23.9718 107.491H66.9998C68.0264 107.491 68.9056 108.362 68.9056 109.38C68.9056 110.251 68.0264 111.122 66.9998 111.122H23.9718C22.9452 111.122 22.2108 110.251 22.2108 109.38C22.2108 108.362 22.9452 107.491 23.9718 107.491ZM81.5148 92.9662H124.762C125.789 92.9662 126.449 93.6913 126.449 94.7802C126.449 95.8717 125.789 96.5968 124.762 96.5968H81.5148C80.4881 96.5968 79.8288 95.8717 79.8288 94.7802C79.8288 93.6913 80.4881 92.9662 81.5148 92.9662ZM23.9718 92.9662H66.9998C68.0264 92.9662 68.9056 93.6913 68.9056 94.7802C68.9056 95.8717 68.0264 96.5968 66.9998 96.5968H23.9718C22.9452 96.5968 22.2108 95.8717 22.2108 94.7802C22.2108 93.6913 22.9452 92.9662 23.9718 92.9662ZM103.211 50.2598L94.1963 54.7615V68.054H112.081V54.7615L103.211 50.2598ZM45.5234 50.2598L36.5784 54.7615V68.054H54.5379V54.7615L45.5234 50.2598ZM102.332 46.6291C102.846 46.483 103.431 46.483 103.945 46.6291L118.313 53.8904C119.192 54.2542 119.56 55.4174 119.192 56.2886C118.678 57.1597 117.654 57.5236 116.772 57.0137L115.748 56.5064V69.7247C115.748 70.5958 114.866 71.4669 113.987 71.4669H92.4353C91.4113 71.4669 90.5295 70.5958 90.5295 69.7247V56.5064L89.5055 57.0137C88.6236 57.5236 87.5995 57.1597 87.2323 56.2886C86.7177 55.4174 87.085 54.2542 87.9642 53.8904L102.332 46.6291ZM44.7165 46.6291C45.2285 46.483 45.8879 46.483 46.4025 46.6291L60.7702 53.8904C61.6494 54.2542 61.9417 55.4174 61.4296 56.2886C61.1348 57.1597 59.891 57.5236 59.2289 57.0137L58.2049 56.5064V69.7247C58.2049 70.5958 57.3231 71.4669 56.2991 71.4669H34.8199C33.7933 71.4669 33.134 70.5958 33.134 69.7247V56.5064L32.1072 57.0137C31.228 57.5236 29.9816 57.1597 29.6894 56.2886C29.1024 55.4174 29.6894 54.2542 30.3488 53.8904L44.7165 46.6291ZM83.4206 39.4372V78.5129H123.004V39.4372H83.4206ZM25.7302 39.4372V78.5129H65.2413V39.4372H25.7302ZM81.5148 35.8064H124.762C125.789 35.8064 126.449 36.6777 126.449 37.5488V80.2552C126.449 81.2724 125.789 82.1435 124.762 82.1435H81.5148C80.4881 82.1435 79.8288 81.2724 79.8288 80.2552V37.5488C79.8288 36.6777 80.4881 35.8064 81.5148 35.8064ZM23.9718 35.8064H66.9998C68.0264 35.8064 68.9056 36.6777 68.9056 37.5488V80.2552C68.9056 81.2724 68.0264 82.1435 66.9998 82.1435H23.9718C22.9452 82.1435 22.2108 81.2724 22.2108 80.2552V37.5488C22.2108 36.6777 22.9452 35.8064 23.9718 35.8064ZM110.762 25.1298H125.497C126.521 25.1298 127.255 25.8575 127.255 26.8721C127.255 27.8893 126.521 28.7604 125.497 28.7604H110.762C109.663 28.7604 109.004 27.8893 109.004 26.8721C109.004 25.8575 109.663 25.1298 110.762 25.1298ZM88.6236 25.1298H103.211C104.09 25.1298 104.972 25.8575 104.972 26.8721C104.972 27.8893 104.09 28.7604 103.211 28.7604H88.6236C87.5996 28.7604 86.7178 27.8893 86.7178 26.8721C86.7178 25.8575 87.5996 25.1298 88.6236 25.1298ZM66.9998 25.1298H81.5148C82.6138 25.1298 83.4931 25.8575 83.4931 26.8721C83.4931 27.8893 82.6138 28.7604 81.5148 28.7604H66.9998C66.1206 28.7604 65.2413 27.8893 65.2413 26.8721C65.2413 25.8575 66.1206 25.1298 66.9998 25.1298ZM11.1428 17.5049V135.744H137.372V17.5049H11.1428ZM49.7746 10.4589L53.4389 14.0895H84.4473L80.7803 10.4589H49.7746ZM11.1428 10.4589V14.0895H48.2334L44.7165 10.4589H11.1428ZM132.166 6.82816H139.202C140.229 6.82816 141.036 7.6993 141.036 8.71648C141.036 9.8054 140.229 10.4589 139.202 10.4589H132.166C131.359 10.4589 130.48 9.8054 130.48 8.71648C130.48 7.6993 131.359 6.82816 132.166 6.82816ZM117.798 6.82816H124.762C125.789 6.82816 126.449 7.6993 126.449 8.71648C126.449 9.8054 125.789 10.4589 124.762 10.4589H117.798C116.772 10.4589 115.893 9.8054 115.893 8.71648C115.893 7.6993 116.772 6.82816 117.798 6.82816ZM103.211 6.82816H110.175C111.202 6.82816 111.861 7.6993 111.861 8.71648C111.861 9.8054 111.202 10.4589 110.175 10.4589H103.211C102.184 10.4589 101.305 9.8054 101.305 8.71648C101.305 7.6993 102.184 6.82816 103.211 6.82816ZM9.38439 6.82816H81.5148C82.0268 6.82816 82.394 6.9742 82.9061 7.33546L89.5055 14.0895H139.13C140.157 14.0895 141.036 14.9631 141.036 15.8343V137.633C141.036 138.504 140.157 139.375 139.13 139.375H9.38439C8.35776 139.375 7.62595 138.504 7.62595 137.633V8.71648C7.62595 7.6993 8.35776 6.82816 9.38439 6.82816ZM3.59185 3.63326V143.515H144.336V3.63326H3.59185ZM1.68599 0H146.022C147.121 0 148 0.799347 148 1.67049V145.258C148 146.275 147.121 147 146.022 147H1.68599C0.806763 147 0 146.275 0 145.258V1.67049C0 0.799347 0.806763 0 1.68599 0Z" fill="white"/>
</svg>
