<svg width="149" height="149" viewBox="0 0 149 149" fill="none" xmlns="http://www.w3.org/2000/svg">
<path fill-rule="evenodd" clip-rule="evenodd" d="M98.0574 112.625V145.244H123.529V112.625H98.0574ZM25.3985 112.625V145.244H80.0212V112.625H25.3985ZM25.3985 105.261V108.942H80.0212V105.261H25.3985ZM105.641 75.7332V86.7057H123.674V75.7332H105.641ZM65.4444 75.7332V86.7057H83.4804V75.7332H65.4444ZM26.0608 68.5897V86.7057H44.0242V68.5897H26.0608ZM105.641 61.4488V72.2732H123.674V61.4488H105.641ZM65.4444 61.4488V72.2732H83.4804V61.4488H65.4444ZM26.0608 61.4488V64.9815H44.0242V61.4488H26.0608ZM103.727 57.8406H125.588C126.474 57.8406 127.357 58.7238 127.357 59.5343V88.3994C127.357 89.4306 126.474 90.1658 125.588 90.1658H103.727C102.696 90.1658 101.958 89.4306 101.958 88.3994V59.5343C101.958 58.7238 102.696 57.8406 103.727 57.8406ZM63.5304 57.8406H85.3943C86.2773 57.8406 87.163 58.7238 87.163 59.5343V88.3994C87.163 89.4306 86.2773 90.1658 85.3943 90.1658H63.5304C62.6474 90.1658 61.7643 89.4306 61.7643 88.3994V59.5343C61.7643 58.7238 62.6474 57.8406 63.5304 57.8406ZM24.2949 57.8406H45.9382C46.8212 57.8406 47.7041 58.7238 47.7041 59.5343V88.3994C47.7041 89.4306 46.8212 90.1658 45.9382 90.1658H24.2949C23.2638 90.1658 22.3809 89.4306 22.3809 88.3994V59.5343C22.3809 58.7238 23.2638 57.8406 24.2949 57.8406ZM74.5727 21.2449C69.493 21.2449 65.4444 25.2947 65.4444 30.1549C65.4444 35.2359 69.493 39.2856 74.5727 39.2856C79.4317 39.2856 83.4804 35.2359 83.4804 30.1549C83.4804 25.2947 79.4317 21.2449 74.5727 21.2449ZM74.5727 17.5614C81.5664 17.5614 87.163 23.3802 87.163 30.1549C87.163 37.1504 81.5664 42.9664 74.5727 42.9664C67.579 42.9664 61.7643 37.1504 61.7643 30.1549C61.7643 23.3802 67.579 17.5614 74.5727 17.5614ZM74.5727 4.01466L24.8818 46.7954C24.3676 47.0162 23.9988 47.1642 23.6326 47.1642H10.8217V145.244H21.7186V103.494C21.7186 102.463 22.6016 101.725 23.6326 101.725H81.7144C82.8181 101.725 83.4804 102.463 83.4804 103.494V145.244H94.5228V110.711C94.5228 109.825 95.2604 108.942 96.2915 108.942H125.443C126.474 108.942 127.209 109.825 127.209 110.711V145.244H138.103V47.1642H125.443C124.926 47.1642 124.56 47.0162 124.191 46.7954L74.5727 4.01466ZM73.3209 0.331192C74.0585 -0.110397 75.0896 -0.110397 75.6038 0.331192L125.957 43.4808H145.466V10.6413H94.2294C93.1257 10.6413 92.2401 9.97891 92.2401 8.94765C92.2401 8.06445 93.1257 7.18118 94.2294 7.18118H147.232C148.263 7.18118 149 8.06445 149 8.94765V45.2498C149 46.2784 148.263 47.1642 147.232 47.1642H141.786V147.01C141.786 148.117 141.048 149 139.872 149H9.05573C8.02472 149 7.14174 148.117 7.14174 147.01V47.1642H1.69318C0.810205 47.1642 0 46.2784 0 45.2498V8.94765C0 8.06445 0.810205 7.18118 1.69318 7.18118H54.698C55.8017 7.18118 56.4639 8.06445 56.4639 8.94765C56.4639 9.97891 55.8017 10.6413 54.698 10.6413H3.68246V43.4808H22.9678L73.3209 0.331192Z" fill="white"/>
</svg>
