<svg width="91" height="91" viewBox="0 0 91 91" fill="none" xmlns="http://www.w3.org/2000/svg">
<path fill-rule="evenodd" clip-rule="evenodd" d="M53.038 70.2663L51.1064 72.198L62.468 83.4484C63.15 82.8803 63.8316 82.4258 64.5132 81.6301C64.9677 81.1756 65.3087 80.4938 65.3087 79.812C65.3087 79.0163 64.9677 78.2209 64.5132 77.88L57.0145 70.2663C55.8783 69.2434 54.1741 69.2434 53.038 70.2663ZM58.5329 39.8606C59.0994 39.2994 59.8927 39.2994 60.4591 39.8606C61.0256 40.4218 61.0256 41.2071 60.4591 41.7683L42.2173 59.7247C41.9908 60.0615 41.6508 60.1736 41.3108 60.1736C40.9711 60.1736 40.631 60.0615 40.4046 59.7247L30.6604 50.0733C30.0939 49.512 30.0939 48.7264 30.6604 48.2776C31.1136 47.7163 31.9066 47.7163 32.4734 48.2776L41.3108 56.9193L58.5329 39.8606ZM6.00073 30.9469C5.65973 31.7423 5.20519 32.5377 4.97809 33.4471C0.88769 48.22 4.9781 64.1298 15.8852 75.039C26.6788 85.8349 42.6989 90.0395 57.469 85.9486C58.378 85.6077 59.1732 85.2665 59.9687 84.9256L49.1751 74.13C44.6302 77.6528 37.927 77.3119 33.7231 73.107L17.703 57.1975C15.5443 55.0386 14.2946 52.0839 14.2946 48.902C14.2946 46.2883 15.2036 43.7881 16.7943 41.7425L6.00073 30.9469ZM9.18201 26.4012C8.61391 27.0833 7.93198 27.765 7.47748 28.4468L18.612 39.6972L20.6572 37.7652C21.1117 37.1971 21.4524 36.5153 21.4524 35.8332C21.4524 35.1515 21.1117 34.4697 20.6572 33.9016L13.1584 26.4012C12.0223 25.2649 10.3181 25.2649 9.18201 26.4012ZM11.1704 22.8501C12.5904 22.8501 14.0107 23.3899 15.0901 24.4695L22.4749 31.9696C23.6111 32.9922 24.1791 34.3561 24.1791 35.8332C24.1791 37.3107 23.6111 38.6743 22.4749 39.6972L19.6346 42.6519C17.9304 44.3563 17.0214 46.5155 17.0214 48.902C17.0214 51.2882 17.9304 53.5611 19.6346 55.2658L35.6547 71.1753C39.1766 74.6981 44.7441 74.6981 48.266 71.1753L51.1064 68.3343C53.2651 66.1751 56.7874 66.1751 58.9461 68.3343L66.4448 75.8344C67.4674 76.8574 68.0355 78.2209 68.0355 79.812C68.0355 81.2892 67.4674 82.5394 66.4448 83.6757C64.0587 85.9486 61.2184 87.653 58.1506 88.4484C54.1741 89.585 50.0838 90.1531 45.9938 90.1531C34.064 90.1531 22.5888 85.4937 13.9536 76.8574C2.47842 65.3797 -1.95259 48.4472 2.36481 32.765C3.16001 29.5831 4.97813 26.742 7.25043 24.4695C8.32973 23.3899 9.75001 22.8501 11.1704 22.8501ZM45.6023 18.8126C52.792 18.8126 59.5249 21.6433 64.6602 26.6253C75.045 37.0422 75.045 53.9133 64.6602 64.3303C64.318 64.5569 63.9754 64.6699 63.7474 64.6699C63.4048 64.6699 62.9484 64.5569 62.7204 64.3303C62.1498 63.764 62.1498 62.8585 62.7204 62.4055C72.0779 53.0074 72.0779 37.8348 62.7204 28.5503C58.1553 24.0213 52.1072 21.53 45.6023 21.53C39.2117 21.53 33.1635 24.0213 28.5988 28.5503C28.0282 29.0033 27.1151 29.0033 26.6586 28.5503C26.0881 27.9841 26.0881 27.0782 26.6586 26.6253C31.6798 21.6433 38.5269 18.8126 45.6023 18.8126ZM42.4299 0.824097H48.9167C50.8512 0.824097 52.4444 2.41313 52.4444 4.34253V9.10889C54.3791 9.44949 56.2001 9.90337 58.1345 10.5845L60.4106 6.4986C60.8657 5.70419 61.6625 5.13703 62.5728 4.90973C63.4834 4.68283 64.5075 4.7964 65.304 5.25031L70.8802 8.54169C72.7011 9.44949 73.1563 11.6059 72.246 13.3081L69.8561 17.394C71.4493 18.6424 72.7011 20.0043 74.0669 21.4796L78.05 19.2099C78.9603 18.756 79.8706 18.529 80.7812 18.756C81.6915 18.9829 82.4883 19.6637 82.9434 20.4582L86.2436 26.133C87.1539 27.7219 86.5849 29.878 84.8779 30.8994L80.8951 33.2827C81.4641 35.0986 82.0328 36.9148 82.3744 38.9575H87.0404C88.9748 38.9575 90.568 40.4328 90.568 42.4756V48.9449C90.568 50.874 88.9748 52.4629 87.0404 52.4629H82.3744C82.0328 54.3924 81.4641 56.2082 80.8951 58.1377L84.8779 60.4074C86.5849 61.4288 87.1539 63.5852 86.2436 65.2878L82.9434 70.8486C82.4883 71.6431 81.6915 72.3242 80.7812 72.5512C80.4396 72.6645 80.2122 72.6645 79.8706 72.6645C79.3016 72.6645 78.619 72.5512 78.05 72.2106L74.0669 69.8272C73.384 70.5084 72.7011 71.3028 72.0183 71.9837C71.5631 72.5512 70.6528 72.5512 70.0838 71.9837C69.6287 71.4161 69.6287 70.5084 70.0838 70.0542C70.9941 69.1464 71.9047 68.2383 72.7011 67.2169C73.0427 66.7631 73.8392 66.5361 74.4082 66.8767L79.5293 69.8272C79.757 69.9409 79.8706 69.9409 80.0983 69.9409C80.3261 69.9409 80.4396 69.8272 80.5535 69.6003L83.8537 63.9258C84.0814 63.4716 83.9676 63.0177 83.5124 62.7908L78.5052 59.9536C77.9361 59.4997 77.5945 58.8185 77.9361 58.1377C78.8464 55.8677 79.5293 53.371 79.8706 50.874C79.9845 50.1932 80.4396 49.7393 81.2364 49.7393H87.0404C87.4955 49.7393 87.8368 49.3987 87.8368 48.9449V42.4756C87.8368 41.9084 87.4955 41.5678 87.0404 41.5678H81.2364C80.4396 41.5678 79.9845 41.114 79.8706 40.4328C79.5293 37.9361 78.8464 35.5528 77.9361 33.1694C77.5945 32.4883 77.9361 31.8075 78.5052 31.4669L83.5124 28.6297C83.9676 28.2891 84.0814 27.8352 83.8537 27.4946L80.5535 21.8202C80.4396 21.7065 80.3261 21.4796 80.0983 21.4796C79.8706 21.3663 79.757 21.3663 79.5293 21.4796L74.4082 24.4305C73.8392 24.771 73.0427 24.6574 72.7011 24.0899C71.108 22.0471 69.2871 20.3449 67.2387 18.756C66.7836 18.4154 66.5559 17.621 67.011 17.0534L69.8561 11.9465C70.0838 11.6059 69.9699 11.0384 69.6287 10.8115L63.9385 7.52002C63.7108 7.40672 63.4834 7.40672 63.3695 7.52002C63.1418 7.52002 62.9144 7.74728 62.8005 7.97418L59.9554 12.9679C59.6141 13.5354 58.8174 13.7623 58.2484 13.5354C55.8585 12.6273 53.355 11.9465 50.8512 11.6059C50.1686 11.4923 49.7132 10.9251 49.7132 10.2439V4.34253C49.7132 3.88833 49.3719 3.5481 48.9167 3.5481H42.4299C41.9747 3.5481 41.6334 3.88833 41.6334 4.34253V10.2439C41.6334 10.9251 41.0644 11.4923 40.3815 11.6059C37.8781 11.9465 35.4881 12.6273 33.0982 13.5354C32.5292 13.7623 31.7328 13.5354 31.505 12.9679L28.4322 7.97418C28.3187 7.51998 27.7497 7.40672 27.2942 7.52002L21.7179 10.8115C21.3767 11.0384 21.2628 11.6059 21.3767 11.9465L24.3356 17.0534C24.6769 17.621 24.563 18.4154 23.994 18.756C22.9698 19.5504 22.0595 20.3449 21.2628 21.2527C20.6938 21.8202 19.7835 21.8202 19.2145 21.2527C18.7593 20.7988 18.7593 19.8907 19.2145 19.4368C19.8973 18.756 20.6938 18.0748 21.3767 17.394L19.1006 13.3081C18.0764 11.6059 18.6455 9.44949 20.3525 8.54169L26.0426 5.25031C27.7497 4.2289 29.9119 4.79639 30.8222 6.4986L33.2121 10.5845C35.033 9.90337 36.9675 9.44949 38.7884 9.10889V4.34253C38.7884 2.41313 40.4954 0.824097 42.4299 0.824097Z" fill="#212121"/>
</svg>
