<svg width="840" height="547" viewBox="0 0 840 547" fill="none" xmlns="http://www.w3.org/2000/svg">
<path fill-rule="evenodd" clip-rule="evenodd" d="M526.85 274.563C526.844 276.426 526.808 294.545 526.784 312.651C526.66 400.082 526.749 487.439 526.749 490.587C526.749 500.357 530.722 509.221 537.139 515.63C543.555 522.051 552.409 526.018 562.177 526.018H578.337C588.104 526.018 596.958 522.051 603.375 515.63C609.791 509.221 613.765 500.357 613.765 490.587V478.159H634.272V490.587C634.272 505.973 627.98 519.961 617.839 530.097C607.704 540.233 593.72 546.528 578.337 546.528H562.177C546.793 546.528 532.809 540.233 522.675 530.097C512.534 519.961 506.242 505.973 506.242 490.587C506.242 487.54 506.176 400.133 506.271 312.651C506.289 294.532 506.313 276.401 506.319 274.563H526.85Z" fill="#A6A6A6"/>
<path fill-rule="evenodd" clip-rule="evenodd" d="M275.63 284.812C244.952 284.812 216.633 294.934 193.829 312.004C199.736 149.689 325.404 17.9396 485.109 2.46945C407.61 80.7146 359.738 188.357 359.738 307.189C359.738 309.423 359.792 311.658 359.832 313.893C336.624 295.698 307.415 284.812 275.63 284.812Z" fill="black"/>
<path fill-rule="evenodd" clip-rule="evenodd" d="M839.368 312.004C816.565 294.934 788.246 284.812 757.568 284.812C725.797 284.812 696.575 295.698 673.367 313.893C673.407 311.658 673.475 309.423 673.475 307.189C673.475 188.357 625.589 80.7146 548.09 2.46945C707.794 17.9396 833.462 149.689 839.368 312.004Z" fill="#E5BC75"/>
<path fill-rule="evenodd" clip-rule="evenodd" d="M541.428 8.63312C620.536 88.4937 664.104 188.789 664.104 301.184C664.104 302.667 664.077 304.136 664.049 305.605L664.008 307.743L663.899 314.753C626.499 292.094 574.193 278.015 516.294 278.015C458.519 278.015 406.309 292.036 368.936 314.608L368.826 307.743L368.785 305.605C368.758 304.136 368.73 302.667 368.73 301.184C368.73 188.789 412.298 88.4937 491.406 8.63312L497.943 2.07379C501.375 1.36121 509.334 0.604919 517.292 0.604919C524.663 0.619415 531.623 1.41928 534.946 2.07379L541.428 8.63312Z" fill="#B7955D"/>
<path fill-rule="evenodd" clip-rule="evenodd" d="M532.636 363.767C536.302 363.722 539.974 363.652 543.634 363.867C547.734 364.112 552.107 365.126 553.62 368.809C555.25 372.787 552.457 376.945 548.674 379.453C547 380.563 545.181 381.432 543.278 382.077C538.544 383.681 533.498 383.871 528.503 383.891C527.93 383.891 527.357 383.891 526.789 383.891V363.817C528.742 363.792 530.689 363.792 532.636 363.767ZM506.412 364.122V384.091C505.11 384.101 503.809 384.106 502.501 384.116C501.2 384.126 499.898 384.136 498.596 384.141C496.955 384.021 495.792 385.725 496.477 387.219C496.849 388.034 497.678 388.438 498.496 388.683C499.77 389.063 501.127 389.118 502.429 388.833L534.455 388.583C537.103 388.259 539.79 388.443 542.371 389.138C544.758 389.773 547.044 390.852 548.724 392.666C550.777 394.88 551.717 397.933 551.094 400.887C550.671 402.905 549.587 404.679 548.118 405.979C546.733 407.213 545.008 408.038 543.078 408.302C544.268 408.447 545.426 408.787 546.505 409.307C547.695 409.887 548.775 410.671 549.687 411.631C551.751 413.804 552.847 416.703 552.913 419.701C552.975 422.789 551.94 425.813 549.937 428.171C549.114 429.141 548.146 429.975 547.061 430.645C548.964 431.62 550.544 433.124 551.601 434.978C552.708 436.922 553.203 439.155 553.014 441.384C552.785 444.098 551.567 446.631 549.631 448.545C547.851 450.309 545.554 451.458 543.078 451.823C545.359 453.188 546.911 455.501 547.311 458.13C547.74 460.918 546.827 463.742 544.892 465.796C542.227 468.624 538.249 469.473 534.405 470.033C525.577 471.312 516.604 471.592 507.725 471.392C496.182 471.133 484.728 470.078 473.168 469.174C460.484 468.179 447.795 467.38 435.089 466.77V401.211L455.917 399.777C456.49 395.869 457.792 392.106 459.75 388.678C463.004 382.982 467.888 378.459 473.262 374.706C480.939 369.344 489.651 365.451 498.947 364.322C501.428 364.022 503.92 364.082 506.412 364.122Z" fill="#D9D9D9"/>
<path d="M0 475.79H437.958V389.852H0V475.79Z" fill="#B7955D"/>
</svg>
