<svg width="376" height="734" viewBox="0 0 376 734" fill="none" xmlns="http://www.w3.org/2000/svg">
<path fill-rule="evenodd" clip-rule="evenodd" d="M188.041 0.452209L0.140625 163.989H54.0003V312.044H149.473L150.203 708.409C150.203 715.403 153.039 721.718 157.649 726.335C162.242 730.918 168.626 733.77 175.62 733.77H201.019C208.012 733.77 214.379 730.918 218.989 726.335C223.599 721.718 226.435 715.403 226.435 708.409V675.715H262.376C269.352 675.715 275.737 672.864 280.329 668.246C284.94 663.663 287.827 657.281 287.827 650.287V624.825C287.827 617.831 284.94 611.55 280.329 606.967C275.737 602.384 269.352 599.532 262.376 599.532H226.435V577.872H279.999C286.992 577.872 293.307 575.054 297.917 570.437C302.51 565.82 305.398 559.471 305.398 552.477V527.049C305.398 520.055 302.51 513.741 297.917 509.157C293.307 504.54 286.992 501.654 279.999 501.654H226.435V312.044H322.046V163.989H375.906L274.223 75.4475V25.0659H238.821V44.621L188.041 0.452209ZM138.948 174.31H181.935V217.29H138.948V174.31ZM194.164 174.31H237.151V217.29H194.164V174.31ZM138.948 229.105H181.935V272.085H138.948V229.105ZM194.164 229.105H237.151V272.085H194.164V229.105Z" fill="black"/>
</svg>
